<svg xmlns="http://www.w3.org/2000/svg" viewBox="0 0 512 512" role="img" aria-labelledby="title desc">
  <title id="title">Autochart app icon</title>
  <desc id="desc">A dark square icon with a pale star above a note highway ending in three colored notes.</desc>
  <rect width="512" height="512" rx="74" fill="#404a68"/>
  <rect x="12" y="12" width="488" height="488" rx="62" fill="#202638"/>
  <g fill="none" stroke="#465170" stroke-linejoin="round">
    <path d="M 256 103 L 70 405 Q 30 471 110 471 L 402 471 Q 482 471 442 405 Z" stroke-width="12"/>
    <path d="M 256 103 L 182 471 M 256 103 L 330 471" stroke-width="10"/>
  </g>
  <rect x="76" y="412" width="100" height="42" rx="21" fill="#16d071"/>
  <rect x="206" y="412" width="100" height="42" rx="21" fill="#e73e43"/>
  <rect x="336" y="412" width="100" height="42" rx="21" fill="#fac026"/>
  <polygon points="256,47 273.6,83.7 314,89.1 284.5,117.3 291.9,157.4 256,138 220.1,157.4 227.5,117.3 198,89.1 238.4,83.7" fill="#a8b5e9"/>
</svg>
